# Blender v2.68 (sub 0) OBJ File: ''
# www.blender.org
mtllib GRAIN\GR2.mtl
o Cube.001
v 0.731737 0.042270 -0.731737
v 0.731737 0.042270 0.731737
v -0.731737 0.042270 -0.731737
v 0.731737 -0.042270 -0.731736
v -0.731737 -0.042270 -0.731737
v 0.731736 -0.042270 0.731737
v -0.731737 0.042270 0.731737
v -0.731737 -0.042270 0.731737
vt 0.000000 0.000000
vt 0.000000 1.000000
vt 1.000000 0.000000
vt 1.000000 1.000000
vn -0.000000 1.000000 0.000000
vn 0.000000 -1.000000 -0.000000
vn 1.000000 0.000000 0.000001
vn 0.000000 -0.000000 1.000000
vn -1.000000 0.000000 0.000000
vn 0.000001 -0.000012 -1.000000
vn 1.000000 -0.000012 -0.000000
vn 0.000000 0.000000 -1.000000
usemtl Material.001
s off
f 1/1/1 3/2/1 2/3/1
f 4/1/2 6/2/2 5/3/2
f 1/1/3 6/4/3 4/3/3
f 2/1/4 7/2/4 6/3/4
f 7/1/5 3/2/5 8/3/5
f 4/1/6 5/2/6 1/3/6
f 2/3/1 3/2/1 7/4/1
f 5/3/2 6/2/2 8/4/2
f 2/2/7 6/4/7 1/1/7
f 6/3/4 7/2/4 8/4/4
f 8/3/5 3/2/5 5/4/5
f 1/3/8 5/2/8 3/4/8
