# Blender v2.68 (sub 0) OBJ File: ''
# www.blender.org
mtllib GRAIN\GrainFB.mtl
o ICO
v 0.000000 -1.000000 0.000000
v 0.443878 -0.272732 0.329840
v -0.180832 -0.272732 0.532824
v -0.566928 -0.272729 0.001412
v -0.276388 -0.447220 -0.850649
v 0.723607 -0.447220 -0.525725
v 0.164494 0.286036 0.532824
v -0.723607 0.447220 0.525725
v -0.723607 0.447220 -0.525725
v 0.276388 0.447220 -0.850649
v 0.894426 0.447216 0.000000
v -0.008169 0.631365 0.001412
v 0.203181 -0.967950 0.147618
v 0.425323 -0.850654 0.309011
v 0.372623 -0.404108 0.278070
v 0.531941 -0.502302 0.681712
v 0.262869 -0.525738 0.809012
v -0.026685 -0.307142 0.541279
v -0.232822 -0.657519 0.716563
v -0.162456 -0.850654 0.499995
v -0.056651 -0.598038 0.150627
v 0.118761 -0.598038 -0.090806
v 0.425323 -0.850654 -0.309011
v 0.372623 -0.404108 -0.275246
v 0.499553 -0.307142 -0.183026
v 0.850648 -0.525736 0.000000
v 0.499553 -0.307142 0.185851
v -0.483971 -0.502302 0.716565
v -0.438089 -0.321782 0.313767
v -0.831051 -0.502299 0.238853
v -0.478853 -0.404106 0.001412
v -0.336599 -0.524761 0.001412
v -0.251147 -0.967949 0.000000
v -0.527337 -0.307140 -0.147802
v -0.438089 -0.321782 -0.310942
v -0.483971 -0.502302 -0.716565
v -0.232822 -0.657519 -0.716563
v -0.162456 -0.850654 -0.499995
v -0.056651 -0.598038 -0.147802
v -0.026685 -0.307142 -0.538454
v 0.156049 -0.321783 -0.503987
v 0.324141 -0.307142 -0.424462
v 0.860698 -0.251151 -0.442858
v 0.585969 0.006652 -0.191632
v 0.589447 0.163548 -0.090807
v 0.589447 0.163548 0.093632
v 0.951058 -0.000000 0.309013
v 0.529520 -0.150245 0.278071
v 0.421108 -0.150246 0.427289
v 0.359028 0.006652 0.506815
v 0.264210 0.163550 0.541282
v 0.155215 0.251152 0.955422
v -0.008169 0.006652 0.626125
v -0.155215 -0.251152 0.955422
v -0.280548 -0.150246 0.541282
v -0.375366 0.006652 0.506815
v -0.437445 0.163550 0.427289
v -0.860698 0.251151 0.442858
v -0.951058 -0.000000 0.309013
v -0.956626 -0.251149 0.147618
v -0.605785 -0.150244 -0.090807
v -0.602307 0.006652 -0.191632
v -0.860698 0.251151 -0.442858
v -0.687159 0.251152 -0.681715
v -0.375366 0.006652 -0.503990
v -0.436007 -0.251152 -0.864188
v -0.155215 -0.251152 -0.955422
v 0.000000 0.000000 -1.000000
v 0.088796 0.163549 -0.595452
v 0.264210 0.163550 -0.538457
v 0.359028 0.006652 -0.503990
v 0.687159 -0.251152 -0.681715
v 0.510999 0.320444 0.150627
v 0.421752 0.335086 0.313767
v 0.483971 0.502302 0.716565
v 0.010347 0.320446 0.541279
v -0.172386 0.335087 0.506812
v -0.340479 0.320446 0.427287
v -0.515891 0.320445 0.185851
v -0.850648 0.525736 0.000000
v -0.812729 0.502301 -0.295238
v -0.340479 0.320446 -0.424462
v -0.172386 0.335087 -0.503987
v 0.010347 0.320446 -0.538454
v 0.294174 0.320446 -0.446234
v 0.421752 0.335086 -0.310942
v 0.831051 0.502299 -0.238853
v 0.753442 0.657515 0.000000
v 0.320261 0.538065 0.001412
v 0.251147 0.967949 0.000000
v 0.040313 0.611342 0.150627
v 0.093319 0.538066 0.313766
v 0.137278 0.417412 0.449058
v -0.135099 0.611342 0.093631
v -0.425323 0.850654 0.309011
v -0.388960 0.417412 0.278070
v -0.135099 0.611342 -0.090806
v -0.273873 0.538066 -0.191631
v -0.609547 0.657519 -0.442856
v 0.040313 0.611342 -0.147802
v 0.162456 0.850654 -0.499995
v 0.232822 0.657519 -0.716563
v 0.024810 -0.445397 0.431331
v 0.138199 -0.894429 0.425321
v 0.217855 -0.445397 0.368605
v 0.410899 -0.445397 -0.100076
v 0.410899 -0.445396 0.102902
v 0.447211 -0.894428 0.000001
v -0.406857 -0.445396 0.165627
v -0.234191 -0.552109 0.165627
v -0.287547 -0.445397 0.329842
v -0.447211 -0.723612 -0.525727
v -0.361801 -0.894429 -0.262863
v -0.406857 -0.445396 -0.162801
v 0.361803 -0.723612 -0.587779
v 0.138197 -0.894429 -0.425321
v 0.024809 -0.445397 -0.428506
v 0.616544 0.006652 0.001412
v 0.947213 -0.276396 0.162458
v 0.947213 -0.276396 -0.162458
v 0.184878 0.006652 0.595549
v 0.078166 -0.166017 0.595548
v 0.447216 -0.276398 0.850648
v -0.809018 0.000000 0.587783
v -0.546548 -0.166016 0.267118
v -0.670819 -0.276397 0.688191
v -0.513573 0.006652 -0.365783
v -0.427238 -0.166017 -0.428509
v -0.546548 -0.166016 -0.264293
v 0.184878 0.006652 -0.592724
v 0.271212 -0.166017 -0.529998
v 0.138199 -0.276398 -0.951055
v 0.670820 0.276396 0.688190
v 0.809019 -0.000002 0.587783
v 0.861804 0.276394 0.425323
v -0.447216 0.276397 0.850648
v -0.309017 -0.000001 0.951056
v -0.138199 0.276397 0.951055
v -0.599905 0.179320 -0.100077
v -0.632881 0.006652 0.001413
v -0.947213 0.276397 0.162458
v -0.094503 0.179321 -0.592724
v -0.309016 -0.000000 -0.951057
v -0.287550 0.179321 -0.529999
v 0.861804 0.276396 -0.425322
v 0.809019 0.000000 -0.587782
v 0.410901 0.179321 -0.428508
v 0.361800 0.894429 0.262863
v 0.447209 0.723612 0.525728
v 0.638194 0.723610 0.262864
v -0.094502 0.565414 0.267115
v -0.361804 0.723612 0.587778
v -0.052790 0.723612 0.688185
v -0.287546 0.565413 0.001412
v -0.670817 0.723611 -0.162457
v -0.427236 0.458701 0.102901
v -0.094502 0.565414 -0.264290
v -0.052790 0.723612 -0.688185
v -0.234192 0.458702 -0.365780
v 0.361800 0.894429 -0.262863
v 0.390519 0.458700 -0.162802
v 0.447209 0.723612 -0.525728
vt 0.000000 0.000000
vt 1.000000 0.000000
vt 1.000000 1.000000
vn -0.509193 -0.364009 0.779885
vn 0.722992 -0.554509 0.412072
vn -0.045451 -0.356149 0.933323
vn -0.044706 -0.350310 -0.935566
vn 0.295484 -0.292740 -0.909391
vn 0.819296 -0.398687 0.412071
vn -0.220730 -0.973293 0.063082
vn -0.333478 -0.464717 -0.820262
vn -0.420608 -0.398689 -0.814945
vn -0.389640 -0.616655 -0.684045
vn 0.771146 -0.302387 0.560265
vn -0.770404 -0.632642 0.079006
vn -0.302493 -0.632691 -0.712881
vn -0.294548 -0.302388 -0.906533
vn 0.771145 -0.302387 -0.560265
vn -0.626472 0.322619 0.709542
vn 0.380063 0.827130 0.414014
vn -0.722992 0.554509 -0.412072
vn -0.784600 0.209515 -0.583529
vn 0.827125 0.554505 -0.091587
vn 0.045397 0.425458 0.903839
vn 0.807141 -0.285412 0.516782
vn -0.261240 -0.742922 -0.616296
vn 0.791256 -0.171953 0.586810
vn -0.749397 -0.560031 0.353228
vn 0.247544 0.049559 0.967608
vn 0.308363 0.065165 0.949034
vn -0.056402 -0.983201 -0.173595
vn 0.000745 -0.983751 -0.179536
vn -0.817818 -0.574129 -0.039371
vn 0.262729 -0.915754 0.303920
vn 0.368129 0.051947 0.928323
vn 0.478088 0.116740 0.870519
vn 0.096840 -0.957643 -0.271187
vn 0.858895 -0.303191 -0.412764
vn 0.260289 -0.822175 0.506238
vn 0.087481 -0.553159 -0.828470
vn 0.092051 -0.555036 0.826717
vn 0.708071 -0.636946 -0.304853
vn 0.974706 0.128841 -0.182615
vn -0.179719 -0.983718 0.000002
vn 0.996746 0.080604 -0.000002
vn 0.995888 0.066926 -0.061061
vn -0.659659 -0.749214 -0.059407
vn 0.708071 -0.636945 0.304854
vn 0.974800 0.127716 0.182903
vn 0.995911 0.066530 0.061119
vn 0.370234 -0.915755 0.155950
vn -0.296154 -0.564291 -0.770628
vn 0.587335 -0.339503 -0.734694
vn -0.468861 -0.314324 -0.825451
vn -0.644124 -0.759434 0.091451
vn -0.848976 -0.165292 0.501914
vn 0.080785 -0.957693 -0.276221
vn 0.210278 -0.728374 0.652116
vn -0.516846 -0.836280 0.183046
vn -0.491122 -0.794657 0.356820
vn -0.598706 -0.672561 0.434986
vn -0.558663 -0.731255 -0.391359
vn -0.017054 -0.369371 0.929126
vn -0.245703 -0.748661 -0.615741
vn -0.939964 -0.328690 -0.091817
vn -0.950798 -0.307902 -0.034341
vn -0.489432 -0.791923 -0.365122
vn 0.241845 0.391310 0.887912
vn -0.342697 -0.554509 -0.758339
vn -0.286018 -0.759438 -0.584335
vn 0.580321 -0.734240 0.352306
vn -0.393648 -0.636948 -0.662826
vn -0.989796 -0.049045 0.133788
vn -0.333798 -0.836282 -0.434984
vn -0.964829 -0.145586 0.218884
vn -0.985750 -0.061348 0.156633
vn -0.726114 -0.595458 -0.343786
vn 0.703707 -0.549809 -0.450007
vn -0.923672 -0.179174 0.338714
vn -0.933117 -0.164840 0.319564
vn -0.644124 -0.759434 -0.091450
vn -0.752032 -0.636945 -0.169559
vn -0.827125 -0.554505 -0.091586
vn -0.392489 -0.824257 -0.408109
vn 0.978040 0.127870 -0.164579
vn -0.150133 -0.744301 0.650751
vn 0.964431 0.167429 -0.204549
vn 0.371290 0.367892 -0.852525
vn 0.310547 -0.836282 -0.451878
vn -0.512561 -0.135444 -0.847901
vn -0.461100 -0.051379 -0.885859
vn 0.102585 -0.595460 -0.796808
vn -0.208528 -0.737999 0.641774
vn -0.260860 -0.745629 0.613180
vn 0.248324 0.055847 -0.967066
vn 0.809016 -0.282954 -0.515199
vn 0.793334 -0.169512 -0.584710
vn 0.806521 -0.189894 -0.559878
vn 0.681060 -0.732227 0.000000
vn 0.598901 0.480146 -0.640919
vn 0.102024 -0.467119 0.878289
vn 0.985412 0.170184 0.000000
vn 0.984649 0.078388 -0.155951
vn 0.636782 0.354268 -0.684837
vn 0.650284 0.759691 -0.000000
vn 0.618684 0.779505 -0.097989
vn 0.618270 0.776621 -0.120842
vn 0.080022 -0.516416 0.852591
vn 0.081746 -0.566106 0.820269
vn 0.932509 -0.361146 0.000000
vn 0.076549 -0.564942 -0.821572
vn 0.073202 -0.991030 -0.111811
vn 0.521239 -0.614666 0.592026
vn 0.771306 0.632696 0.069163
vn 0.089448 -0.820397 0.564755
vn 0.771908 0.285355 0.568094
vn 0.887982 -0.343057 0.306268
vn 0.452594 0.078389 0.888264
vn 0.155708 -0.096236 0.983104
vn -0.481122 0.297337 0.824689
vn 0.287263 0.774355 0.563785
vn 0.936603 0.347392 0.045756
vn 0.704446 -0.640761 0.305256
vn -0.607175 0.151138 0.780061
vn -0.504438 0.234169 0.831088
vn 0.415083 -0.439872 0.796378
vn 0.944784 0.325401 0.038699
vn 0.966083 0.244857 -0.082031
vn -0.041198 -0.364396 0.930332
vn -0.888267 0.078387 0.452590
vn -0.132565 -0.533765 0.835178
vn 0.137925 0.516165 0.845311
vn 0.152240 0.494103 0.855970
vn -0.357152 -0.916148 0.181977
vn -0.773289 -0.518974 -0.364265
vn 0.161582 0.407327 0.898875
vn 0.232741 0.340750 0.910890
vn -0.309991 0.183859 0.932792
vn -0.239530 0.121688 0.963233
vn -0.708207 -0.603060 -0.367100
vn -0.696964 -0.621416 -0.357887
vn 0.243004 0.316174 0.917051
vn 0.366537 0.236258 0.899907
vn -0.771146 0.302388 -0.560265
vn -0.407961 -0.816784 -0.407960
vn -0.961175 0.273817 -0.034160
vn -0.485282 -0.800119 -0.352579
vn -0.515907 -0.815317 -0.262865
vn -0.703826 -0.096235 -0.703824
vn -0.794654 -0.187594 -0.577350
vn -0.886873 -0.096235 -0.451880
vn -0.936570 -0.174545 -0.303924
vn -0.983740 0.178958 -0.015170
vn -0.991486 0.115069 0.060941
vn -0.754417 -0.361144 -0.548115
vn -0.803908 -0.439870 -0.400308
vn -0.896269 -0.348473 -0.274351
vn -0.905035 -0.398686 -0.148192
vn 0.212059 -0.727377 -0.652651
vn 0.452594 0.078389 -0.888265
vn -0.277930 0.279765 -0.918959
vn 0.304507 0.170186 -0.937183
vn 0.795475 0.480726 -0.368948
vn 0.451884 -0.096236 -0.886871
vn 0.880356 0.309658 -0.359285
vn 0.848991 0.355223 -0.391192
vn -0.000363 -0.174545 -0.984649
vn -0.375360 -0.641257 -0.669248
vn 0.415083 -0.439872 -0.796378
vn 0.793160 -0.601906 -0.092772
vn -0.061021 -0.993274 -0.098399
vn -0.083646 -0.990707 -0.107249
vn 0.727643 -0.613578 -0.306688
vn -0.361949 -0.232324 0.902784
vn -0.234120 -0.341448 0.910275
vn -0.160858 -0.496120 0.853223
vn -0.243416 -0.316491 0.916833
vn 0.694470 0.620218 -0.364749
vn -0.167421 -0.409496 0.896818
vn 0.794655 0.187592 0.577349
vn 0.111555 0.990448 0.081043
vn 0.135826 0.990625 -0.014603
vn 0.279468 -0.938442 0.203039
vn 0.320566 -0.933039 0.163329
vn 0.886873 0.096233 0.451880
vn 0.598772 0.467131 -0.650585
vn 0.567154 0.516599 -0.641453
vn 0.399463 -0.129933 0.907494
vn 0.206908 -0.127864 0.969969
vn -0.939034 -0.337000 0.068157
vn -0.861106 -0.493765 0.121214
vn -0.840001 0.519142 -0.157764
vn -0.120584 0.990044 0.072609
vn -0.904908 -0.405563 0.129077
vn -0.303534 0.187593 0.934171
vn -0.043587 0.990003 0.134146
vn 0.055477 0.990404 0.126576
vn -0.846520 -0.516133 0.130429
vn 0.662770 0.416688 0.622179
vn 0.671773 -0.415163 0.613483
vn -0.076489 -0.781995 0.618574
vn 0.082912 0.987209 0.136178
vn 0.221521 0.971439 0.085053
vn -0.819296 0.398687 -0.412071
vn -0.791722 -0.277539 0.544195
vn -0.984650 -0.078388 -0.155951
vn -0.800533 -0.182600 0.570793
vn -0.816700 -0.574004 -0.059329
vn -0.983104 0.096236 -0.155706
vn -0.627136 -0.302191 -0.717900
vn -0.627188 -0.239902 -0.741001
vn -0.102464 0.570583 0.814823
vn -0.593685 0.329087 -0.734329
vn -0.632604 0.428572 -0.645087
vn -0.647294 -0.350027 -0.677120
vn -0.936345 0.174544 0.304618
vn -0.107383 0.986708 0.121970
vn -0.545252 0.619786 -0.564416
vn -0.730665 -0.121253 -0.671883
vn 0.073296 0.918916 -0.387584
vn -0.155953 -0.078389 -0.984649
vn 0.016035 0.348476 -0.937181
vn -0.132301 0.439872 -0.888262
vn -0.065703 0.907527 -0.414823
vn -0.124572 0.915145 -0.383393
vn -0.288163 0.361146 -0.886868
vn -0.415083 0.439872 -0.796378
vn -0.304507 -0.170186 -0.937183
vn -0.902276 0.407805 -0.139976
vn -0.891019 0.432269 -0.138669
vn 0.294473 -0.287061 -0.911527
vn 0.370386 0.641376 -0.671901
vn 0.385518 0.617289 -0.685806
vn 0.693580 -0.639562 -0.331522
vn 0.780765 -0.349950 0.517631
vn 0.794706 0.417677 0.440441
vn 0.783659 -0.328505 0.527222
vn -0.118063 0.622523 -0.773645
vn 0.789356 -0.416088 0.451429
vn -0.105702 0.518816 -0.848326
vn -0.124310 0.603261 -0.787797
vn 0.629137 0.439872 -0.640858
vn 0.797217 -0.170187 -0.579207
vn -0.160791 0.413246 -0.896311
vn -0.158605 0.435097 -0.886304
vn 0.578466 0.174546 -0.796813
vn 0.537887 0.348475 -0.767622
vn 0.986704 -0.137583 -0.086524
vn -0.749535 0.578815 0.321203
vn -0.669233 0.571950 0.474341
vn -0.621848 0.473177 0.624026
vn -0.673816 0.587602 0.447991
vn 0.925656 0.147677 -0.348356
vn -0.622165 0.548524 0.558598
vn 0.491120 0.794658 0.356819
vn 0.329548 0.533219 -0.779151
vn -0.251192 0.906940 -0.338175
vn -0.610909 0.456370 0.646929
vn 0.986452 0.023908 -0.162301
vn 0.757830 -0.350040 0.550605
vn 0.795955 -0.381877 0.469709
vn 0.808110 -0.380197 0.449899
vn 0.299879 0.201039 0.932553
vn -0.048151 0.987786 0.148191
vn 0.655654 0.753653 0.046098
vn -0.979105 -0.095017 0.179794
vn -0.089143 0.957489 0.274349
vn 0.033908 0.915755 0.400305
vn 0.655088 0.732649 0.184622
vn 0.116782 0.925842 -0.359414
vn 0.221766 0.905366 -0.362121
vn 0.882548 0.454928 0.118952
vn -0.964827 -0.139686 0.222705
vn -0.373155 -0.360107 0.855031
vn -0.291777 -0.329383 0.897983
vn -0.200710 -0.362989 0.909920
vn 0.658871 -0.164308 0.734092
vn 0.168486 0.554509 0.814943
vn -0.155817 0.987786 0.000000
vn -0.370234 0.915754 -0.155951
vn 0.412862 0.902516 -0.122515
vn -0.288470 0.957489 0.000000
vn 0.154877 0.758031 -0.633563
vn 0.415428 0.904258 -0.098674
vn -0.016221 0.700127 0.713834
vn -0.707122 0.331800 -0.624409
vn -0.976935 -0.095631 0.190929
vn -0.708071 0.636946 -0.304853
vn -0.789510 0.595460 -0.148666
vn -0.072868 0.671584 0.737337
vn -0.110143 0.562333 0.819542
vn -0.708071 0.636946 0.304853
vn -0.283016 0.829078 -0.482216
vn -0.048151 0.987786 -0.148191
vn -0.548136 0.767830 0.331637
vn 0.112066 0.759438 -0.640855
vn -0.089143 0.957490 -0.274349
vn -0.262729 0.915754 -0.303920
vn -0.629646 0.746108 0.216490
vn -0.681277 0.705253 0.196162
vn -0.310547 0.836282 -0.451877
vn 0.493274 0.828474 -0.265163
vn -0.175652 -0.366795 -0.913569
vn -0.200733 -0.368537 -0.907682
vn -0.890181 0.059891 -0.451654
vn -0.385367 0.595460 -0.704925
vn 0.287650 0.178264 -0.940999
vn 0.311085 0.197593 -0.929615
vn -0.750791 0.577086 -0.321379
vn 0.925547 0.149946 0.347675
vn -0.231455 0.833429 -0.501821
vn -0.675747 0.585260 -0.448149
vn -0.556156 0.764281 0.326444
vn 0.932962 0.137854 0.332534
vn 0.964396 0.117922 0.236717
vn 0.333798 0.836282 -0.434985
vn 0.286017 0.759438 -0.584336
vn -0.178414 0.797558 -0.576255
vn -0.185349 0.734923 -0.652329
vn 0.983311 0.034339 0.178662
vn 0.692314 -0.383334 -0.611355
vn 0.677472 -0.381193 -0.629066
vn 0.981179 0.192337 0.017140
usemtl mat
s off
f 1/1/1 13/2/1 21/3/1
f 2/1/2 15/2/2 27/3/2
f 1/1/3 21/2/3 33/3/3
f 1/1/4 33/2/4 39/3/4
f 1/1/5 39/2/5 22/3/5
f 2/1/6 27/2/6 48/3/6
f 3/1/7 18/2/7 54/3/7
f 4/1/8 30/2/8 60/3/8
f 5/1/9 36/2/9 66/3/9
f 6/1/10 42/2/10 72/3/10
f 2/1/11 48/2/11 49/3/11
f 3/1/12 54/2/12 55/3/12
f 4/1/13 60/2/13 61/3/13
f 5/1/14 66/2/14 67/3/14
f 6/1/15 72/2/15 43/3/15
f 7/1/16 75/2/16 93/3/16
f 8/1/17 78/2/17 96/3/17
f 9/1/18 81/2/18 99/3/18
f 10/1/19 84/2/19 102/3/19
f 11/1/20 87/2/20 88/3/20
f 19/1/21 18/2/21 3/3/21
f 20/1/22 103/2/22 19/3/22
f 21/1/23 104/2/23 20/3/23
f 19/1/24 103/2/24 18/3/24
f 103/1/25 17/2/25 18/3/25
f 20/1/26 104/2/26 103/3/26
f 104/1/27 105/2/27 103/3/27
f 103/1/28 105/2/28 17/3/28
f 105/1/29 16/2/29 17/3/29
f 21/1/30 13/2/30 104/3/30
f 13/1/31 14/2/31 104/3/31
f 104/1/32 14/2/32 105/3/32
f 14/1/33 15/2/33 105/3/33
f 105/1/34 15/2/34 16/3/34
f 15/1/35 2/2/35 16/3/35
f 25/1/36 24/2/36 6/3/36
f 26/1/37 106/2/37 25/3/37
f 27/1/38 107/2/38 26/3/38
f 25/1/39 106/2/39 24/3/39
f 106/1/40 23/2/40 24/3/40
f 26/1/41 107/2/41 106/3/41
f 107/1/42 108/2/42 106/3/42
f 106/1/43 108/2/43 23/3/43
f 108/1/44 22/2/44 23/3/44
f 27/1/45 15/2/45 107/3/45
f 15/1/46 14/2/46 107/3/46
f 107/1/47 14/2/47 108/3/47
f 14/1/48 13/2/48 108/3/48
f 108/1/49 13/2/49 22/3/49
f 13/1/50 1/2/50 22/3/50
f 31/1/51 30/2/51 4/3/51
f 32/1/52 109/2/52 31/3/52
f 33/1/53 110/2/53 32/3/53
f 31/1/54 109/2/54 30/3/54
f 109/1/55 29/2/55 30/3/55
f 32/1/56 110/2/56 109/3/56
f 110/1/57 111/2/57 109/3/57
f 109/1/58 111/2/58 29/3/58
f 111/1/59 28/2/59 29/3/59
f 33/1/60 21/2/60 110/3/60
f 21/1/61 20/2/61 110/3/61
f 110/1/62 20/2/62 111/3/62
f 20/1/63 19/2/63 111/3/63
f 111/1/64 19/2/64 28/3/64
f 19/1/65 3/2/65 28/3/65
f 37/1/66 36/2/66 5/3/66
f 38/1/67 112/2/67 37/3/67
f 39/1/68 113/2/68 38/3/68
f 37/1/69 112/2/69 36/3/69
f 112/1/70 35/2/70 36/3/70
f 38/1/71 113/2/71 112/3/71
f 113/1/72 114/2/72 112/3/72
f 112/1/73 114/2/73 35/3/73
f 114/1/74 34/2/74 35/3/74
f 39/1/75 33/2/75 113/3/75
f 33/1/76 32/2/76 113/3/76
f 113/1/77 32/2/77 114/3/77
f 32/1/78 31/2/78 114/3/78
f 114/1/79 31/2/79 34/3/79
f 31/1/80 4/2/80 34/3/80
f 24/1/81 42/2/81 6/3/81
f 23/1/82 115/2/82 24/3/82
f 22/1/83 116/2/83 23/3/83
f 24/1/84 115/2/84 42/3/84
f 115/1/85 41/2/85 42/3/85
f 23/1/86 116/2/86 115/3/86
f 116/1/87 117/2/87 115/3/87
f 115/1/88 117/2/88 41/3/88
f 117/1/89 40/2/89 41/3/89
f 22/1/90 39/2/90 116/3/90
f 39/1/91 38/2/91 116/3/91
f 116/1/92 38/2/92 117/3/92
f 38/1/93 37/2/93 117/3/93
f 117/1/94 37/2/94 40/3/94
f 37/1/95 5/2/95 40/3/95
f 46/1/96 45/2/96 11/3/96
f 47/1/97 118/2/97 46/3/97
f 48/1/98 119/2/98 47/3/98
f 46/1/99 118/2/99 45/3/99
f 118/1/100 44/2/100 45/3/100
f 47/1/101 119/2/101 118/3/101
f 119/1/102 120/2/102 118/3/102
f 118/1/103 120/2/103 44/3/103
f 120/1/104 43/2/104 44/3/104
f 48/1/105 27/2/105 119/3/105
f 27/1/106 26/2/106 119/3/106
f 119/1/107 26/2/107 120/3/107
f 26/1/108 25/2/108 120/3/108
f 120/1/109 25/2/109 43/3/109
f 25/1/110 6/2/110 43/3/110
f 52/1/111 51/2/111 7/3/111
f 53/1/112 121/2/112 52/3/112
f 54/1/113 122/2/113 53/3/113
f 52/1/114 121/2/114 51/3/114
f 121/1/115 50/2/115 51/3/115
f 53/1/116 122/2/116 121/3/116
f 122/1/117 123/2/117 121/3/117
f 121/1/118 123/2/118 50/3/118
f 123/1/119 49/2/119 50/3/119
f 54/1/120 18/2/120 122/3/120
f 18/1/121 17/2/121 122/3/121
f 122/1/122 17/2/122 123/3/122
f 17/1/123 16/2/123 123/3/123
f 123/1/124 16/2/124 49/3/124
f 16/1/125 2/2/125 49/3/125
f 58/1/126 57/2/126 8/3/126
f 59/1/127 124/2/127 58/3/127
f 60/1/128 125/2/128 59/3/128
f 58/1/129 124/2/129 57/3/129
f 124/1/130 56/2/130 57/3/130
f 59/1/131 125/2/131 124/3/131
f 125/1/132 126/2/132 124/3/132
f 124/1/133 126/2/133 56/3/133
f 126/1/134 55/2/134 56/3/134
f 60/1/135 30/2/135 125/3/135
f 30/1/136 29/2/136 125/3/136
f 125/1/137 29/2/137 126/3/137
f 29/1/138 28/2/138 126/3/138
f 126/1/139 28/2/139 55/3/139
f 28/1/140 3/2/140 55/3/140
f 64/1/141 63/2/141 9/3/141
f 65/1/142 127/2/142 64/3/142
f 66/1/143 128/2/143 65/3/143
f 64/1/144 127/2/144 63/3/144
f 127/1/145 62/2/145 63/3/145
f 65/1/146 128/2/146 127/3/146
f 128/1/147 129/2/147 127/3/147
f 127/1/148 129/2/148 62/3/148
f 129/1/149 61/2/149 62/3/149
f 66/1/150 36/2/150 128/3/150
f 36/1/151 35/2/151 128/3/151
f 128/1/152 35/2/152 129/3/152
f 35/1/153 34/2/153 129/3/153
f 129/1/154 34/2/154 61/3/154
f 34/1/155 4/2/155 61/3/155
f 70/1/156 69/2/156 10/3/156
f 71/1/157 130/2/157 70/3/157
f 72/1/158 131/2/158 71/3/158
f 70/1/159 130/2/159 69/3/159
f 130/1/160 68/2/160 69/3/160
f 71/1/161 131/2/161 130/3/161
f 131/1/162 132/2/162 130/3/162
f 130/1/163 132/2/163 68/3/163
f 132/1/164 67/2/164 68/3/164
f 72/1/165 42/2/165 131/3/165
f 42/1/166 41/2/166 131/3/166
f 131/1/167 41/2/167 132/3/167
f 41/1/168 40/2/168 132/3/168
f 132/1/169 40/2/169 67/3/169
f 40/1/170 5/2/170 67/3/170
f 51/1/171 75/2/171 7/3/171
f 50/1/172 133/2/172 51/3/172
f 49/1/173 134/2/173 50/3/173
f 51/1/174 133/2/174 75/3/174
f 133/1/175 74/2/175 75/3/175
f 50/1/176 134/2/176 133/3/176
f 134/1/177 135/2/177 133/3/177
f 133/1/178 135/2/178 74/3/178
f 135/1/179 73/2/179 74/3/179
f 49/1/180 48/2/180 134/3/180
f 48/1/181 47/2/181 134/3/181
f 134/1/182 47/2/182 135/3/182
f 47/1/183 46/2/183 135/3/183
f 135/1/184 46/2/184 73/3/184
f 46/1/185 11/2/185 73/3/185
f 57/1/186 78/2/186 8/3/186
f 56/1/187 136/2/187 57/3/187
f 55/1/188 137/2/188 56/3/188
f 57/1/189 136/2/189 78/3/189
f 136/1/190 77/2/190 78/3/190
f 56/1/191 137/2/191 136/3/191
f 137/1/192 138/2/192 136/3/192
f 136/1/193 138/2/193 77/3/193
f 138/1/194 76/2/194 77/3/194
f 55/1/195 54/2/195 137/3/195
f 54/1/196 53/2/196 137/3/196
f 137/1/197 53/2/197 138/3/197
f 53/1/198 52/2/198 138/3/198
f 138/1/199 52/2/199 76/3/199
f 52/1/200 7/2/200 76/3/200
f 63/1/201 81/2/201 9/3/201
f 62/1/202 139/2/202 63/3/202
f 61/1/203 140/2/203 62/3/203
f 63/1/204 139/2/204 81/3/204
f 139/1/205 80/2/205 81/3/205
f 62/1/206 140/2/206 139/3/206
f 140/1/207 141/2/207 139/3/207
f 139/1/208 141/2/208 80/3/208
f 141/1/209 79/2/209 80/3/209
f 61/1/210 60/2/210 140/3/210
f 60/1/211 59/2/211 140/3/211
f 140/1/212 59/2/212 141/3/212
f 59/1/213 58/2/213 141/3/213
f 141/1/214 58/2/214 79/3/214
f 58/1/215 8/2/215 79/3/215
f 69/1/216 84/2/216 10/3/216
f 68/1/217 142/2/217 69/3/217
f 67/1/218 143/2/218 68/3/218
f 69/1/219 142/2/219 84/3/219
f 142/1/220 83/2/220 84/3/220
f 68/1/221 143/2/221 142/3/221
f 143/1/222 144/2/222 142/3/222
f 142/1/223 144/2/223 83/3/223
f 144/1/224 82/2/224 83/3/224
f 67/1/225 66/2/225 143/3/225
f 66/1/226 65/2/226 143/3/226
f 143/1/227 65/2/227 144/3/227
f 65/1/228 64/2/228 144/3/228
f 144/1/229 64/2/229 82/3/229
f 64/1/230 9/2/230 82/3/230
f 45/1/231 87/2/231 11/3/231
f 44/1/232 145/2/232 45/3/232
f 43/1/233 146/2/233 44/3/233
f 45/1/234 145/2/234 87/3/234
f 145/1/235 86/2/235 87/3/235
f 44/1/236 146/2/236 145/3/236
f 146/1/237 147/2/237 145/3/237
f 145/1/238 147/2/238 86/3/238
f 147/1/239 85/2/239 86/3/239
f 43/1/240 72/2/240 146/3/240
f 72/1/241 71/2/241 146/3/241
f 146/1/242 71/2/242 147/3/242
f 71/1/243 70/2/243 147/3/243
f 147/1/244 70/2/244 85/3/244
f 70/1/245 10/2/245 85/3/245
f 91/1/246 90/2/246 12/3/246
f 92/1/247 148/2/247 91/3/247
f 93/1/248 149/2/248 92/3/248
f 91/1/249 148/2/249 90/3/249
f 148/1/250 89/2/250 90/3/250
f 92/1/251 149/2/251 148/3/251
f 149/1/252 150/2/252 148/3/252
f 148/1/253 150/2/253 89/3/253
f 150/1/254 88/2/254 89/3/254
f 93/1/255 75/2/255 149/3/255
f 75/1/256 74/2/256 149/3/256
f 149/1/257 74/2/257 150/3/257
f 74/1/258 73/2/258 150/3/258
f 150/1/259 73/2/259 88/3/259
f 73/1/260 11/2/260 88/3/260
f 94/1/261 91/2/261 12/3/261
f 95/1/262 151/2/262 94/3/262
f 96/1/263 152/2/263 95/3/263
f 94/1/264 151/2/264 91/3/264
f 151/1/265 92/2/265 91/3/265
f 95/1/266 152/2/266 151/3/266
f 152/1/267 153/2/267 151/3/267
f 151/1/268 153/2/268 92/3/268
f 153/1/269 93/2/269 92/3/269
f 96/1/270 78/2/270 152/3/270
f 78/1/271 77/2/271 152/3/271
f 152/1/272 77/2/272 153/3/272
f 77/1/273 76/2/273 153/3/273
f 153/1/274 76/2/274 93/3/274
f 76/1/275 7/2/275 93/3/275
f 97/1/276 94/2/276 12/3/276
f 98/1/277 154/2/277 97/3/277
f 99/1/278 155/2/278 98/3/278
f 97/1/279 154/2/279 94/3/279
f 154/1/280 95/2/280 94/3/280
f 98/1/281 155/2/281 154/3/281
f 155/1/282 156/2/282 154/3/282
f 154/1/283 156/2/283 95/3/283
f 156/1/284 96/2/284 95/3/284
f 99/1/285 81/2/285 155/3/285
f 81/1/286 80/2/286 155/3/286
f 155/1/287 80/2/287 156/3/287
f 80/1/288 79/2/288 156/3/288
f 156/1/289 79/2/289 96/3/289
f 79/1/290 8/2/290 96/3/290
f 100/1/291 97/2/291 12/3/291
f 101/1/292 157/2/292 100/3/292
f 102/1/293 158/2/293 101/3/293
f 100/1/294 157/2/294 97/3/294
f 157/1/295 98/2/295 97/3/295
f 101/1/296 158/2/296 157/3/296
f 158/1/297 159/2/297 157/3/297
f 157/1/298 159/2/298 98/3/298
f 159/1/299 99/2/299 98/3/299
f 102/1/300 84/2/300 158/3/300
f 84/1/301 83/2/301 158/3/301
f 158/1/302 83/2/302 159/3/302
f 83/1/303 82/2/303 159/3/303
f 159/1/304 82/2/304 99/3/304
f 82/1/305 9/2/305 99/3/305
f 90/1/306 100/2/306 12/3/306
f 89/1/307 160/2/307 90/3/307
f 88/1/308 161/2/308 89/3/308
f 90/1/309 160/2/309 100/3/309
f 160/1/310 101/2/310 100/3/310
f 89/1/311 161/2/311 160/3/311
f 161/1/312 162/2/312 160/3/312
f 160/1/313 162/2/313 101/3/313
f 162/1/314 102/2/314 101/3/314
f 88/1/315 87/2/315 161/3/315
f 87/1/316 86/2/316 161/3/316
f 161/1/317 86/2/317 162/3/317
f 86/1/318 85/2/318 162/3/318
f 162/1/319 85/2/319 102/3/319
f 85/1/320 10/2/320 102/3/320
