# Blender v2.68 (sub 0) OBJ File: ''
# www.blender.org
mtllib GRAIN\sp.mtl
o IC
v 0.000000 -0.907978 0.000000
v 0.657019 -0.406065 0.477347
v -0.250954 -0.406066 0.772371
v -0.812119 -0.406062 0.000000
v -0.250954 -0.406066 -0.772371
v 0.657019 -0.406065 -0.477347
v 0.250954 0.406066 0.772371
v -0.657019 0.406065 0.477347
v -0.657019 0.406065 -0.477347
v 0.250954 0.406066 -0.772371
v 0.812119 0.406062 0.000000
v 0.000000 0.907978 0.000000
v 0.386184 -0.772375 0.280576
v 0.238679 -0.477358 0.734565
v -0.147506 -0.772375 0.453985
v 0.386184 -0.772375 -0.280576
v 0.772369 -0.477357 0.000000
v -0.624861 -0.477357 0.453986
v -0.477351 -0.772373 0.000000
v -0.624861 -0.477357 -0.453986
v -0.147506 -0.772375 -0.453985
v 0.238679 -0.477358 -0.734565
v 0.863540 0.000000 -0.280577
v 0.863540 0.000000 0.280577
v 0.533696 0.000000 0.734569
v 0.000000 0.000000 0.907978
v -0.533696 0.000000 0.734569
v -0.863540 0.000000 0.280577
v -0.863540 0.000000 -0.280577
v -0.533696 0.000000 -0.734569
v 0.000000 0.000000 -0.907978
v 0.533696 0.000000 -0.734569
v 0.624861 0.477357 0.453986
v -0.238679 0.477358 0.734565
v -0.772369 0.477357 0.000000
v -0.238679 0.477358 -0.734565
v 0.624861 0.477357 -0.453986
v 0.477351 0.772373 0.000000
v 0.147506 0.772375 0.453985
v -0.386184 0.772375 0.280576
v -0.386184 0.772375 -0.280576
v 0.147506 0.772375 -0.453985
vt 0.000000 0.000000
vt 1.000000 0.000000
vt 1.000000 1.000000
vn 0.000000 -1.000000 0.000000
vn 0.425306 -0.850642 0.309000
vn -0.162450 -0.850642 0.499985
vn 0.723594 -0.447188 0.525712
vn 0.850642 -0.525712 0.000000
vn -0.525712 -0.850642 0.000000
vn -0.162450 -0.850642 -0.499985
vn 0.425306 -0.850642 -0.309000
vn 0.951048 0.000000 0.309000
vn -0.276376 -0.447218 0.850642
vn 0.262856 -0.525712 0.808985
vn 0.000000 0.000000 1.000000
vn -0.894406 -0.447188 0.000000
vn -0.688162 -0.525712 0.499985
vn -0.951048 0.000000 0.309000
vn -0.276376 -0.447218 -0.850642
vn -0.688162 -0.525712 -0.499985
vn -0.587756 0.000000 -0.809015
vn 0.723594 -0.447188 -0.525712
vn 0.262856 -0.525712 -0.808985
vn 0.587756 0.000000 -0.809015
vn 0.587756 0.000000 0.809015
vn -0.587756 0.000000 0.809015
vn -0.951048 0.000000 -0.309000
vn 0.000000 0.000000 -0.999969
vn 0.951048 0.000000 -0.309000
vn 0.276376 0.447218 0.850642
vn 0.688162 0.525712 0.499985
vn 0.162450 0.850642 0.499985
vn -0.723594 0.447188 0.525712
vn -0.262856 0.525712 0.808985
vn -0.425306 0.850642 0.309000
vn -0.723594 0.447188 -0.525712
vn -0.850642 0.525712 0.000000
vn -0.425306 0.850642 -0.309000
vn 0.276376 0.447218 -0.850642
vn -0.262856 0.525712 -0.808985
vn 0.162450 0.850642 -0.499985
vn 0.894406 0.447188 0.000000
vn 0.688162 0.525712 -0.499985
vn 0.525712 0.850642 0.000000
vn 0.000000 1.000000 0.000000
usemtl mm
s 1
f 1/1/1 13/2/2 15/3/3
f 2/1/4 13/2/2 17/3/5
f 1/1/1 15/2/3 19/3/6
f 1/1/1 19/2/6 21/3/7
f 1/1/1 21/2/7 16/3/8
f 2/1/4 17/2/5 24/3/9
f 3/1/10 14/2/11 26/3/12
f 4/1/13 18/2/14 28/3/15
f 5/1/16 20/2/17 30/3/18
f 6/1/19 22/2/20 32/3/21
f 2/1/4 24/2/9 25/3/22
f 3/1/10 26/2/12 27/3/23
f 4/1/13 28/2/15 29/3/24
f 5/1/16 30/2/18 31/3/25
f 6/1/19 32/2/21 23/3/26
f 7/1/27 33/2/28 39/3/29
f 8/1/30 34/2/31 40/3/32
f 9/1/33 35/2/34 41/3/35
f 10/1/36 36/2/37 42/3/38
f 11/1/39 37/2/40 38/3/41
f 15/1/3 14/2/11 3/3/10
f 15/1/3 13/2/2 14/3/11
f 13/1/2 2/2/4 14/3/11
f 17/1/5 16/2/8 6/3/19
f 17/1/5 13/2/2 16/3/8
f 13/1/2 1/2/1 16/3/8
f 19/1/6 18/2/14 4/3/13
f 19/1/6 15/2/3 18/3/14
f 15/1/3 3/2/10 18/3/14
f 21/1/7 20/2/17 5/3/16
f 21/1/7 19/2/6 20/3/17
f 19/1/6 4/2/13 20/3/17
f 16/1/8 22/2/20 6/3/19
f 16/1/8 21/2/7 22/3/20
f 21/1/7 5/2/16 22/3/20
f 24/1/9 23/2/26 11/3/39
f 24/1/9 17/2/5 23/3/26
f 17/1/5 6/2/19 23/3/26
f 26/1/12 25/2/22 7/3/27
f 26/1/12 14/2/11 25/3/22
f 14/1/11 2/2/4 25/3/22
f 28/1/15 27/2/23 8/3/30
f 28/1/15 18/2/14 27/3/23
f 18/1/14 3/2/10 27/3/23
f 30/1/18 29/2/24 9/3/33
f 30/1/18 20/2/17 29/3/24
f 20/1/17 4/2/13 29/3/24
f 32/1/21 31/2/25 10/3/36
f 32/1/21 22/2/20 31/3/25
f 22/1/20 5/2/16 31/3/25
f 25/1/22 33/2/28 7/3/27
f 25/1/22 24/2/9 33/3/28
f 24/1/9 11/2/39 33/3/28
f 27/1/23 34/2/31 8/3/30
f 27/1/23 26/2/12 34/3/31
f 26/1/12 7/2/27 34/3/31
f 29/1/24 35/2/34 9/3/33
f 29/1/24 28/2/15 35/3/34
f 28/1/15 8/2/30 35/3/34
f 31/1/25 36/2/37 10/3/36
f 31/1/25 30/2/18 36/3/37
f 30/1/18 9/2/33 36/3/37
f 23/1/26 37/2/40 11/3/39
f 23/1/26 32/2/21 37/3/40
f 32/1/21 10/2/36 37/3/40
f 39/1/29 38/2/41 12/3/42
f 39/1/29 33/2/28 38/3/41
f 33/1/28 11/2/39 38/3/41
f 40/1/32 39/2/29 12/3/42
f 40/1/32 34/2/31 39/3/29
f 34/1/31 7/2/27 39/3/29
f 41/1/35 40/2/32 12/3/42
f 41/1/35 35/2/34 40/3/32
f 35/1/34 8/2/30 40/3/32
f 42/1/38 41/2/35 12/3/42
f 42/1/38 36/2/37 41/3/35
f 36/1/37 9/2/33 41/3/35
f 38/1/41 42/2/38 12/3/42
f 38/1/41 37/2/40 42/3/38
f 37/1/40 10/2/36 42/3/38
